<?xml version="1.0" encoding="UTF-8" standalone="no"?>
<svg
   xmlns:dc="http://purl.org/dc/elements/1.1/"
   xmlns:cc="http://creativecommons.org/ns#"
   xmlns:rdf="http://www.w3.org/1999/02/22-rdf-syntax-ns#"
   xmlns:svg="http://www.w3.org/2000/svg"
   xmlns="http://www.w3.org/2000/svg"
   xmlns:sodipodi="http://sodipodi.sourceforge.net/DTD/sodipodi-0.dtd"
   xmlns:inkscape="http://www.inkscape.org/namespaces/inkscape"
   inkscape:version="1.0 (4035a4fb49, 2020-05-01)"
   sodipodi:docname="raceflags.svg"
   id="svg865"
   version="1.1"
   height="360"
   width="335">
  <metadata
     id="metadata871">
    <rdf:RDF>
      <cc:Work
         rdf:about="">
        <dc:format>image/svg+xml</dc:format>
        <dc:type
           rdf:resource="http://purl.org/dc/dcmitype/StillImage" />
        <dc:title>Double Red Flag</dc:title>
      </cc:Work>
    </rdf:RDF>
  </metadata>
  <defs
     id="defs869" />
  <sodipodi:namedview
     inkscape:current-layer="g863"
     inkscape:window-maximized="1"
     inkscape:window-y="-9"
     inkscape:window-x="-9"
     inkscape:cy="240"
     inkscape:cx="320"
     inkscape:zoom="1.3125"
     inkscape:pagecheckerboard="true"
     showgrid="false"
     id="namedview867"
     inkscape:window-height="1411"
     inkscape:window-width="2560"
     inkscape:pageshadow="2"
     inkscape:pageopacity="0"
     guidetolerance="10"
     gridtolerance="10"
     objecttolerance="10"
     borderopacity="1"
     bordercolor="#666666"
     pagecolor="#ffffff" />
  <title
     id="title853">Double Red Flag</title>
  <g
     transform="matrix(1.2099467,0,0,0.94671877,-64.195226,-1.086115)"
     id="g863">
    <title
       id="title855">Layer 1</title>
    <g
       style="fill:#ffffff;fill-opacity:1;stroke:#ffffff;stroke-opacity:1"
       transform="matrix(1,0,0,0.59111473,-247.15768,17.285084)"
       id="Layer_1">
      <line
         style="fill:#ffffff;fill-opacity:1;stroke:#ffffff;stroke-opacity:1"
         y2="-23.582993"
         x2="308.41699"
         y1="612"
         x1="308.41699"
         stroke-width="10"
         stroke-miterlimit="10"
         stroke-linecap="round"
         stroke="#000000"
         id="svg_1" />
    </g>
    <g
       style="fill:#fff900;fill-opacity:1;stroke:#ffffff;stroke-opacity:1"
       transform="translate(-248.10223,28.972249)"
       id="svg_3">
      <path
         style="fill:#fff900;fill-opacity:1;stroke:#ffffff;stroke-opacity:1"
         d="m 313.625,-22.583008 c 0,0 0,29.222015 133.324,27.396011 133.32401,-1.826004 126.02097,20.089996 126.02097,20.089996 0,0 -49.01996,-9.132004 -114.91598,29.222 C 392.15799,92.479003 313.625,81.520995 313.625,81.520995"
         fill="#00ff00"
         stroke-width="5"
         id="svg_4" />
    </g>
    <g
       id="svg_3-5"
       transform="translate(-248.10223,133.07625)"
       style="fill:#000000;fill-opacity:1;stroke:#ffffff;stroke-opacity:1">
      <path
         id="svg_4-4"
         stroke-width="5"
         fill="#00ff00"
         d="m 313.625,-22.583008 c 0,0 0,29.222015 133.324,27.396011 133.32401,-1.826004 126.02097,20.089996 126.02097,20.089996 0,0 -49.01996,-9.132004 -114.91598,29.222 C 392.15799,92.479003 313.625,81.520995 313.625,81.520995"
         style="fill:#000000;fill-opacity:1;stroke:#ffffff;stroke-opacity:1" />
    </g>
    <g
       id="svg_3-2"
       transform="translate(-248.10223,237.18025)"
       style="fill:#ffffff;fill-opacity:1;stroke:#ffffff;stroke-opacity:1">
      <path
         id="svg_4-9"
         stroke-width="5"
         fill="#00ff00"
         d="m 313.625,-22.583008 c 0,0 0,29.222015 133.324,27.396011 133.32401,-1.826004 126.02097,20.089996 126.02097,20.089996 0,0 -49.01996,-9.132004 -114.91598,29.222 C 392.15799,92.479003 313.625,81.520995 313.625,81.520995"
         style="fill:#ffffff;fill-opacity:1;stroke:#ffffff;stroke-opacity:1" />
    </g>
  </g>
</svg>
